<?xml version="1.0" encoding="UTF-8"?>
<svg version="1.1" xmlns="http://www.w3.org/2000/svg" width="597" height="466">
<path d="M0 0 C197.01 0 394.02 0 597 0 C597 153.78 597 307.56 597 466 C399.99 466 202.98 466 0 466 C0 312.22 0 158.44 0 0 Z " fill="#FBFBFB" transform="translate(0,0)"/>
<path d="M0 0 C18.90731342 -0.09373106 37.81457923 -0.16411947 56.72207737 -0.20724869 C65.50254173 -0.22781283 74.28286114 -0.25581478 83.06323242 -0.30175781 C90.72243207 -0.341815 98.38152667 -0.36747741 106.04082817 -0.37635398 C110.09076737 -0.38153702 114.14040622 -0.39358821 118.19024849 -0.42292023 C122.01439994 -0.45038909 125.83813184 -0.45838271 129.66237259 -0.45243073 C131.05418249 -0.45351709 132.44600875 -0.46128173 133.83773232 -0.4768219 C151.12772049 -0.66015675 167.06856399 3.65573989 179.93359375 15.73828125 C192.57925166 29.57918093 195.06444419 45.08564454 194.26953125 63.09326172 C193.04782803 76.26862266 185.4107553 88.48707117 175.91796875 97.4140625 C164.93471148 106.49594122 151.19302149 111.18935934 137 110 C142.66916567 118.35377058 148.55559358 126.52284851 154.56298828 134.63598633 C158.58007497 140.06382921 162.55664231 145.51838896 166.5 151 C171.02040718 157.28160478 175.58731766 163.52659002 180.1875 169.75 C184.58181885 175.69715791 188.94175228 181.66451475 193.22094727 187.69506836 C195.6289177 191.08732595 198.0578274 194.46320448 200.50390625 197.828125 C201.40387329 199.06743774 201.40387329 199.06743774 202.32202148 200.33178711 C203.50844548 201.96418443 204.69671071 203.59524539 205.88696289 205.22485352 C206.42184326 205.96147217 206.95672363 206.69809082 207.5078125 207.45703125 C208.22928467 208.4466687 208.22928467 208.4466687 208.96533203 209.45629883 C210 211 210 211 210 212 C205.54201956 212.14667378 201.08466946 212.23453375 196.625 212.3125 C194.74748047 212.3753418 194.74748047 212.3753418 192.83203125 212.43945312 C183.13709261 212.56635023 176.60655929 210.9347694 169.1875 204.59765625 C164.01597026 198.60422267 159.27023616 192.40865321 154.75 185.91796875 C151.66292433 181.49051207 148.45940769 177.15172536 145.25 172.8125 C144.36646851 171.61645142 144.36646851 171.61645142 143.46508789 170.39624023 C142.25581486 168.75939522 141.04625802 167.12275985 139.83642578 165.48632812 C137.99096297 162.98776481 136.1491491 160.48655515 134.30859375 157.984375 C128.57904241 150.19583809 122.83253767 142.42278613 117.015625 134.69921875 C114.27919675 131.03473829 111.60616871 127.32556508 108.9296875 123.6171875 C106.45819763 120.26516682 103.87133919 117.01305932 101.25 113.77734375 C100 112 100 112 100 110 C92.41 110 84.82 110 77 110 C77 143.66 77 177.32 77 212 C75.35 210.35 73.7 208.7 72 207 C71.36578125 206.38898438 70.7315625 205.77796875 70.078125 205.1484375 C58.28824209 193.7112434 47.08668118 181.17264569 46.57548141 164.074193 C46.52268232 159.46108923 46.55854809 154.85123796 46.609375 150.23828125 C46.61684747 148.23618641 46.62253564 146.23408418 46.62652588 144.23197937 C46.64170302 138.9958124 46.68091558 133.76009847 46.7253418 128.52410889 C46.76646644 123.16782762 46.78457343 117.81147221 46.8046875 112.45507812 C46.8474183 101.96985446 46.91557236 91.4849651 47 81 C48.21807343 80.99857498 49.43614685 80.99714996 50.69113159 80.99568176 C62.19622391 80.97897889 73.70096403 80.93610451 85.20586967 80.86790943 C91.12004497 80.8336862 97.0339632 80.80853664 102.94824219 80.80444336 C108.66081791 80.80015052 114.37281422 80.77160517 120.08520889 80.72656822 C122.25953923 80.71362486 124.43393902 80.70927426 126.60830307 80.71384621 C129.66511586 80.71877456 132.72024966 80.69255975 135.77685547 80.65942383 C136.66662582 80.66804947 137.55639618 80.67667511 138.47312927 80.68556213 C145.85593395 80.55227046 152.65981861 78.38368569 157.94981194 73.02479267 C163.13474723 66.67053005 164.5456722 59.9302461 164.37890625 51.84765625 C163.56593952 45.73783411 160.72042531 40.20085344 156.125 36.0625 C149.22074485 31.5056916 144.0835208 30.56273088 135.95654297 30.63110352 C134.97178482 30.62733704 133.98702667 30.62357056 132.97242737 30.61968994 C130.84231389 30.61327441 128.71217177 30.61357154 126.58205795 30.61987495 C123.20043722 30.62901915 119.81936703 30.61872108 116.43777466 30.60325623 C106.82603787 30.56326072 97.21434526 30.56194575 87.60253906 30.56420898 C81.71342741 30.56426034 75.82461161 30.54496316 69.93558121 30.51487541 C66.62261446 30.50412664 63.31023131 30.51613776 59.99728394 30.52870178 C37.69373102 30.49022825 25.53105526 24.64602236 9.55078125 9.33984375 C7.2828735 7.17190907 4.97315039 5.11309149 2.54296875 3.12890625 C1.70378906 2.42636719 0.86460938 1.72382812 0 1 C0 0.67 0 0.34 0 0 Z " fill="#1B2882" transform="translate(112,124)"/>
<path d="M0 0 C5.37106359 -0.07473651 10.74181753 -0.12887661 16.11328125 -0.16479492 C17.93657715 -0.17978489 19.7598376 -0.20018384 21.58300781 -0.22631836 C35.13543474 -0.41557733 47.26910305 -0.45389961 58 9 C61.42662055 13.05241763 63.75583929 17.38651109 65.87109375 22.2265625 C67.94467181 26.96442739 70.30437248 31.5079057 72.75 36.0625 C75.85092332 41.8512302 78.8552516 47.6799203 81.78125 53.55859375 C85.65457036 61.34023644 89.62106498 69.07137239 93.6105957 76.79394531 C99.74890666 88.67862021 105.85559334 100.5753226 111.76855469 112.57421875 C114.56787378 118.22914642 117.47829199 123.81810743 120.4296875 129.39453125 C126.32527988 140.55381828 132.08481577 151.78197563 137.77247238 163.04842949 C139.36802346 166.20849699 140.96992788 169.36499277 142.58642578 172.5144043 C144.18130256 175.62206402 145.76021638 178.73735595 147.32828903 181.8586216 C148.20403641 183.59212924 149.09555218 185.31764247 149.98745728 187.04289246 C152.9543846 192.99148022 154.91275575 197.32588827 154 204 C151.89825351 208.05336823 150.2280833 210.31632721 146 212 C143.89355469 212.22705078 143.89355469 212.22705078 141.671875 212.1953125 C140.47304688 212.18564453 140.47304688 212.18564453 139.25 212.17578125 C138.425 212.15902344 137.6 212.14226562 136.75 212.125 C135.90953125 212.11597656 135.0690625 212.10695313 134.203125 212.09765625 C132.13529396 212.07415817 130.06761005 212.03828908 128 212 C118.64971271 194.6454822 109.93579412 176.96788938 101.15307617 159.32202148 C98.77361897 154.54556942 96.38647484 149.77294969 94 145 C63.805 144.505 63.805 144.505 33 144 C34.52111377 140.19721558 36.09057145 136.83395234 38.0390625 133.26171875 C38.82337646 131.81865356 38.82337646 131.81865356 39.62353516 130.34643555 C40.28401855 129.13898682 40.94450195 127.93153809 41.625 126.6875 C43.72875 122.830625 45.8325 118.97375 48 115 C58.23 115 68.46 115 79 115 C77.205625 111.57625 75.41125 108.1525 73.5625 104.625 C68.25516987 94.47497653 63.07602321 84.26741058 58 74 C53.44739167 81.16400295 49.26130134 88.28724322 45.546875 95.92578125 C43.58072316 99.83325978 41.41505814 103.60901297 39.22680664 107.39550781 C36.58506753 111.96838583 33.99747583 116.56836776 31.4375 121.1875 C31.0348291 121.91235596 30.6321582 122.63721191 30.21728516 123.3840332 C27.85870002 127.63349916 25.51063476 131.88857769 23.17195129 136.14903259 C21.82739319 138.59650557 20.47899121 141.04185032 19.13015747 143.48696899 C18.46537805 144.69431758 17.80232338 145.90261761 17.14108276 147.11190796 C16.20520636 148.82310202 15.26285572 150.53075027 14.3203125 152.23828125 C13.77648926 153.22868408 13.23266602 154.21908691 12.67236328 155.23950195 C10.97949003 158.03385492 9.09592115 160.49785496 7 163 C4.9371878 160.14605886 2.87480802 157.29180549 0.8125 154.4375 C0.23435547 153.63763672 -0.34378906 152.83777344 -0.93945312 152.01367188 C-2.08546873 150.42737909 -3.22728855 148.83804602 -4.36474609 147.24560547 C-5.40562318 145.81622544 -6.47386252 144.40609427 -7.57666016 143.02392578 C-11.04922399 138.59283343 -11.04922399 138.59283343 -10.80395508 135.63891602 C-9.90097955 132.67497357 -8.6741805 130.25257382 -7.1484375 127.5546875 C-6.55232666 126.4920166 -5.95621582 125.4293457 -5.34204102 124.33447266 C-4.69291748 123.19284668 -4.04379395 122.0512207 -3.375 120.875 C-2.69450269 119.66626267 -2.01474664 118.45710775 -1.33569336 117.24755859 C0.07457486 114.73696032 1.48800707 112.22818492 2.90380859 109.72070312 C6.10959083 104.0376669 9.27227206 98.33068982 12.4375 92.625 C13.04311768 91.53485596 13.64873535 90.44471191 14.27270508 89.3215332 C18.77115476 81.22267058 23.25903359 73.11798999 27.73782349 65.00823975 C28.44823986 63.72200584 29.1589085 62.43591124 29.86984253 61.14996338 C30.8580645 59.3621488 31.84520812 57.57374325 32.83203125 55.78515625 C33.67858276 54.25193726 33.67858276 54.25193726 34.54223633 52.68774414 C38.0226476 46.27075407 39.44596414 41.11578453 37.3828125 33.81640625 C33.62172271 25.27906528 24.79244561 19.94941819 17.5625 14.5 C16.07539257 13.36996044 14.58841231 12.23975351 13.1015625 11.109375 C11.73438876 10.07289852 10.36720245 9.03643862 9 8 C7.14284536 6.58725264 5.28790284 5.17157933 3.4375 3.75 C2.75558594 3.22921875 2.07367188 2.7084375 1.37109375 2.171875 C0.91863281 1.78515625 0.46617187 1.3984375 0 1 C0 0.67 0 0.34 0 0 Z " fill="#2DC4CF" transform="translate(294,124)"/>
<path d="M0 0 C3.97007894 3.81040483 7.4230115 7.85673832 10.8125 12.1875 C11.56563477 13.13012695 11.56563477 13.13012695 12.33398438 14.09179688 C16 18.75536777 16 18.75536777 16 21 C7.09 21 -1.82 21 -11 21 C-9.69646 17.74115 -8.5363417 14.99957184 -6.8359375 12.01171875 C-6.43632812 11.30595703 -6.03671875 10.60019531 -5.625 9.87304688 C-5.2125 9.15181641 -4.8 8.43058594 -4.375 7.6875 C-3.95476562 6.94693359 -3.53453125 6.20636719 -3.1015625 5.44335938 C-2.07051505 3.62730989 -1.03563954 1.81343467 0 0 Z " fill="#2663A2" transform="translate(255,315)"/>
<path d="M0 0 C0.33 0 0.66 0 1 0 C1 33.66 1 67.32 1 102 C0.34 101.67 -0.32 101.34 -1 101 C-1 97.7 -1 94.4 -1 91 C-1.33 91 -1.66 91 -2 91 C-2.02497151 86.07446652 -2.04298678 81.148971 -2.05493164 76.22338867 C-2.05991846 74.55248369 -2.06671031 72.88158298 -2.07543945 71.21069336 C-2.11803287 62.83983484 -2.09505811 54.60165489 -1.18920898 46.26928711 C-0.90976583 42.91777214 -1.17089874 39.78460938 -1.5 36.4375 C-2.1010101 30.2020202 -2.1010101 30.2020202 -1 28 C-0.92709518 26.23315159 -0.91634125 24.4635378 -0.9375 22.6953125 C-0.94523438 21.63699219 -0.95296875 20.57867187 -0.9609375 19.48828125 C-0.98688844 17.25390519 -1.01292947 15.01953018 -1.0390625 12.78515625 C-1.04679688 11.72425781 -1.05453125 10.66335937 -1.0625 9.5703125 C-1.07410156 8.59852051 -1.08570313 7.62672852 -1.09765625 6.62548828 C-1.00915467 4.24612328 -0.6820964 2.27119302 0 0 Z " fill="#1B1A6C" transform="translate(188,234)"/>
<path d="M0 0 C18.15 0 36.3 0 55 0 C55 0.33 55 0.66 55 1 C37.84 1.33 20.68 1.66 3 2 C2.67 21.47 2.34 40.94 2 61 C1.67 61 1.34 61 1 61 C0.16407101 57.36523699 -0.121937 54.0180922 -0.11352539 50.29174805 C-0.11344986 49.17096359 -0.11337433 48.05017914 -0.11329651 46.89543152 C-0.10813522 45.6963063 -0.10297394 44.49718109 -0.09765625 43.26171875 C-0.0962413 42.02581497 -0.09482635 40.78991119 -0.09336853 39.51655579 C-0.08872618 36.24341655 -0.07975311 32.97032713 -0.06866455 29.69720459 C-0.05840404 26.35217752 -0.05394631 23.00714827 -0.04882812 19.66210938 C-0.03866046 13.10803334 -0.01908338 6.55408041 0 0 Z " fill="#13116D" transform="translate(159,206)"/>
<path d="M0 0 C0.66 0 1.32 0 2 0 C0.24856322 4.75254736 -2.07688226 9.15515617 -4.4375 13.625 C-4.86981934 14.44589111 -5.30213867 15.26678223 -5.74755859 16.11254883 C-10.58401894 25.21744047 -15.76217866 34.12154725 -21 43 C-25.23162855 39.17485794 -28.3359136 34.55910689 -31.625 29.9375 C-32.21023438 29.12216797 -32.79546875 28.30683594 -33.3984375 27.46679688 C-40.0180273 18.22821799 -40.0180273 18.22821799 -39.81640625 15.67578125 C-38.87110269 12.57753753 -37.53292088 10.00494538 -35.9375 7.1875 C-35.11572266 5.72376953 -35.11572266 5.72376953 -34.27734375 4.23046875 C-33.64505859 3.12638672 -33.64505859 3.12638672 -33 2 C-32 5 -32 5 -32.7421875 6.8671875 C-33.30292969 7.86105469 -33.30292969 7.86105469 -33.875 8.875 C-35.59424261 11.94078228 -36.91231372 14.44612678 -37 18 C-35.69795439 20.6270415 -33.97515247 22.87250215 -32.1875 25.1875 C-31.72279297 25.81591797 -31.25808594 26.44433594 -30.77929688 27.09179688 C-28.96213688 29.52945053 -27.15203848 31.84796152 -25 34 C-24.30251417 35.31747324 -23.63040043 36.64914193 -23 38 C-22.01 38 -21.02 38 -20 38 C-20 37.01 -20 36.02 -20 35 C-19.34 35 -18.68 35 -18 35 C-17.79375 34.236875 -17.5875 33.47375 -17.375 32.6875 C-14.89336546 26.03220736 -11.2643764 19.9079116 -7.4375 13.9375 C-4.58371933 9.48078409 -2.29370069 4.76308908 0 0 Z " fill="#4495B4" transform="translate(323,244)"/>
<path d="M0 0 C5.48094366 -0.049467 10.96175713 -0.0857514 16.44287109 -0.10986328 C18.30715194 -0.11991593 20.17141703 -0.13356005 22.03564453 -0.15087891 C24.71651091 -0.17515953 27.39716866 -0.18649047 30.078125 -0.1953125 C30.91055725 -0.20563507 31.7429895 -0.21595764 32.60064697 -0.22659302 C39.74669236 -0.22797609 39.74669236 -0.22797609 43 2 C30.30954808 2.18043297 17.67316725 1.62102318 5 1 C6.65 2.65 8.3 4.3 10 6 C9.67 6.66 9.34 7.32 9 8 C7.49712782 6.85793642 5.99776716 5.71125043 4.5 4.5625 C3.6646875 3.92441406 2.829375 3.28632812 1.96875 2.62890625 C1.3190625 2.09136719 0.669375 1.55382812 0 1 C0 0.67 0 0.34 0 0 Z " fill="#59DED7" transform="translate(294,124)"/>
<path d="M0 0 C0.33 0.99 0.66 1.98 1 3 C20.14 3.33 39.28 3.66 59 4 C59 4.33 59 4.66 59 5 C38.87 5 18.74 5 -2 5 C-1.34 3.35 -0.68 1.7 0 0 Z " fill="#3AA8B7" transform="translate(329,263)"/>
<path d="M0 0 C1.5 1.375 1.5 1.375 3 3 C3 3.66 3 4.32 3 5 C-7.23 5 -17.46 5 -28 5 C-28 4.34 -28 3.68 -28 3 C-18.76 3 -9.52 3 0 3 C0 2.01 0 1.02 0 0 Z " fill="#CBF6F7" transform="translate(370,234)"/>
<path d="M0 0 C0.66 0 1.32 0 2 0 C0.17340834 5.02825793 -2.37198774 9.66087196 -4.875 14.375 C-5.52662109 15.6125 -5.52662109 15.6125 -6.19140625 16.875 C-8.70810238 21.63631699 -11.29968178 26.34038112 -14 31 C-14.68359375 29.33203125 -14.68359375 29.33203125 -15 27 C-13.84765625 24.51171875 -13.84765625 24.51171875 -12.0625 21.6875 C-9.05708779 16.78552725 -6.24608401 11.83554613 -3.5625 6.75 C-3.03184937 5.74779419 -3.03184937 5.74779419 -2.49047852 4.7253418 C-1.6582603 3.15131462 -0.82881374 1.57582248 0 0 Z " fill="#43A6BD" transform="translate(323,244)"/>
<path d="M0 0 C9.57 0 19.14 0 29 0 C29 0.33 29 0.66 29 1 C27.85785034 0.99830811 27.85785034 0.99830811 26.69262695 0.99658203 C23.23168979 1.00871179 19.77294896 1.06637937 16.3125 1.125 C15.11431641 1.12242187 13.91613281 1.11984375 12.68164062 1.1171875 C6.52480453 1.04615439 6.52480453 1.04615439 1.05224609 3.39355469 C-0.51559201 5.17447834 -0.51559201 5.17447834 -2 8 C-2.33 7.34 -2.66 6.68 -3 6 C-2.01 4.02 -1.02 2.04 0 0 Z " fill="#30B8C5" transform="translate(342,239)"/>
<path d="M0 0 C1 3 1 3 -0.21484375 5.69921875 C-0.78332031 6.68535156 -1.35179687 7.67148437 -1.9375 8.6875 C-2.50339844 9.68136719 -3.06929688 10.67523438 -3.65234375 11.69921875 C-4.09707031 12.45847656 -4.54179687 13.21773438 -5 14 C-7.33524782 11.74259377 -9.18705073 9.7194239 -11 7 C-11 6.01 -11 5.02 -11 4 C-8.48916886 5.25541557 -8.12874554 6.50063488 -7 9 C-6.01 9 -5.02 9 -4 9 C-4 8.01 -4 7.02 -4 6 C-3.34 6 -2.68 6 -2 6 C-1.34 4.02 -0.68 2.04 0 0 Z " fill="#3D89AE" transform="translate(307,273)"/>
<path d="M0 0 C1 3 1 3 -0.43359375 6.13671875 C-1.09135973 7.3260128 -1.75977815 8.50946371 -2.4375 9.6875 C-2.77587891 10.29400391 -3.11425781 10.90050781 -3.46289062 11.52539062 C-4.29957915 13.0220025 -5.14862831 14.51169189 -6 16 C-6.71484375 14.390625 -6.71484375 14.390625 -7 12 C-5.56640625 8.984375 -5.56640625 8.984375 -3.5625 5.75 C-2.90378906 4.67234375 -2.24507813 3.5946875 -1.56640625 2.484375 C-1.04949219 1.66453125 -0.53257812 0.8446875 0 0 Z " fill="#449BB7" transform="translate(315,259)"/>
<path d="M0 0 C0.33 0.99 0.66 1.98 1 3 C5.29 3.33 9.58 3.66 14 4 C14 4.33 14 4.66 14 5 C8.72 5 3.44 5 -2 5 C-1.34 3.35 -0.68 1.7 0 0 Z " fill="#44A0B5" transform="translate(329,263)"/>
<path d="M0 0 C0.598125 0.763125 1.19625 1.52625 1.8125 2.3125 C3.46959332 4.3483575 5.10297674 6.1978279 7 8 C6.67 8.99 6.34 9.98 6 11 C4.99126984 9.73608512 3.99328178 8.46359117 3 7.1875 C2.443125 6.47980469 1.88625 5.77210938 1.3125 5.04296875 C0 3 0 3 0 0 Z " fill="#211D6B" transform="translate(165,306)"/>
<path d="M0 0 C1.65 0 3.3 0 5 0 C4.04578192 1.14926266 3.08647955 2.29430541 2.125 3.4375 C1.59132813 4.07558594 1.05765625 4.71367187 0.5078125 5.37109375 C-1 7 -1 7 -3 8 C-1.125 2.25 -1.125 2.25 0 0 Z " fill="#38B0C2" transform="translate(342,239)"/>
<path d="M0 0 C2.2477975 2.05233685 3.0022242 3.00667261 4 6 C2.02 6 0.04 6 -2 6 C-1.34 4.02 -0.68 2.04 0 0 Z " fill="#CEF8F7" transform="translate(351,197)"/>
<path d="M0 0 C3.68802044 1.22934015 4.72356973 2.93859378 7 6 C6.67 6.66 6.34 7.32 6 8 C4.99403703 7.0479279 3.99538437 6.08812654 3 5.125 C2.443125 4.59132813 1.88625 4.05765625 1.3125 3.5078125 C0 2 0 2 0 0 Z " fill="#181666" transform="translate(179,324)"/>
<path d="M0 0 C2.25 -0.25 2.25 -0.25 5 0 C7.3125 2 7.3125 2 9 4 C8.67 4.66 8.34 5.32 8 6 C6.66402348 5.19185349 5.331275 4.37836819 4 3.5625 C3.2575 3.11003906 2.515 2.65757812 1.75 2.19140625 C1.1725 1.79824219 0.595 1.40507812 0 1 C0 0.67 0 0.34 0 0 Z " fill="#3C5491" transform="translate(261,155)"/>
</svg>
