<svg version="1.1" id="Layer_1" xmlns="http://www.w3.org/2000/svg" xmlns:xlink="http://www.w3.org/1999/xlink" x="0px" y="0px"
	 width="100%" viewBox="0 0 496 496" enable-background="new 0 0 496 496" xml:space="preserve">
<path fill="#000000" opacity="1.000000" stroke="none" 
	d="
M176.966370,276.961609 
	C184.584961,269.606537 194.566391,270.740265 203.839188,269.883179 
	C208.067749,269.492340 211.412430,268.424133 214.662430,265.781921 
	C243.561417,242.287201 267.827972,214.936157 285.048370,181.686539 
	C289.276917,173.521912 292.450439,164.975922 294.252441,155.912323 
	C297.060120,141.790283 288.585358,133.071121 274.383667,135.616821 
	C260.028992,138.189926 247.187668,144.566223 234.971054,152.072891 
	C189.487396,180.020874 150.603775,215.356827 118.229614,257.795898 
	C114.041710,263.285797 109.808144,268.909332 107.553337,275.967712 
	C110.604469,277.235443 113.738686,278.465607 111.722641,282.425507 
	C110.160248,285.494293 107.252655,285.869446 104.378784,285.066895 
	C100.810242,284.070404 99.280968,281.360626 100.099289,277.740723 
	C101.290558,272.471100 103.877281,267.797729 106.882248,263.356812 
	C120.575027,243.120880 136.825882,225.051376 154.095184,207.865295 
	C178.618362,183.460327 204.749146,161.009369 234.867218,143.693039 
	C248.603287,135.795502 262.893280,128.931351 279.056458,127.427910 
	C296.323700,125.821770 305.509644,135.816589 302.602570,153.029633 
	C302.216736,155.314209 302.556610,157.716080 301.834625,160.232117 
	C304.728516,157.055939 307.519897,153.778503 310.536957,150.723984 
	C317.514862,143.659393 325.078278,137.438385 335.182251,135.411407 
	C344.351624,133.571930 352.261322,137.731293 355.798737,146.338699 
	C358.024414,151.754379 359.145691,157.421814 359.373505,163.320465 
	C360.532745,193.334732 353.005371,222.000320 345.950256,250.741104 
	C344.603210,256.228546 343.046143,261.664154 341.621338,267.132904 
	C340.919983,269.824921 341.283142,271.631836 344.773407,271.703461 
	C354.617340,271.905457 364.408722,271.159119 374.189545,270.277039 
	C377.151245,270.009918 380.037628,269.242035 382.569366,267.342377 
	C383.870819,266.365906 385.874878,265.805054 387.020844,267.544189 
	C388.021484,269.062775 387.336975,270.760162 386.117065,272.104858 
	C384.014435,274.422577 381.298645,275.600983 378.317078,276.266785 
	C368.042816,278.561157 357.637909,279.440918 347.117126,279.384155 
	C338.339172,279.336792 338.358429,279.460419 336.005371,287.661652 
	C326.505341,320.772461 315.920837,353.539612 304.766144,386.125641 
	C304.442902,387.069916 304.143768,388.025452 303.761627,388.945984 
	C302.468658,392.060242 300.185974,394.239105 296.802826,393.038391 
	C293.125824,391.733429 294.850067,388.543793 295.696564,386.235260 
	C304.121216,363.258850 312.120819,340.139069 319.335815,316.753662 
	C322.572968,306.261292 325.496796,295.670959 328.827667,285.209412 
	C330.167847,281.000092 328.793243,279.925476 324.760162,279.896210 
	C305.604858,279.757294 286.450348,279.474701 267.296722,279.170166 
	C262.971527,279.101440 258.621552,278.978455 254.336609,278.447601 
	C250.081070,277.920380 247.587692,279.095337 246.042252,283.404175 
	C241.996429,294.684265 237.619781,305.849426 233.172623,316.979584 
	C231.828415,320.343811 232.658203,321.814240 236.070053,322.668121 
	C243.492188,324.525665 250.929123,326.406982 257.845642,329.817322 
	C260.547821,331.149689 263.181976,332.582794 264.494690,335.570221 
	C265.968170,338.923584 264.658234,342.727356 261.392273,343.872345 
	C257.772125,345.141541 256.262787,343.344116 255.615692,339.883301 
	C255.058853,336.905182 252.279373,335.857727 249.873566,334.791901 
	C244.055832,332.214600 237.764694,331.231598 231.651657,329.648315 
	C228.551758,328.845428 228.018250,331.135132 227.277359,333.175995 
	C222.221954,347.101685 217.199707,361.039520 212.102875,374.950012 
	C211.423950,376.803009 210.614105,378.693909 209.452866,380.262146 
	C208.063690,382.138153 205.880341,382.936218 203.667648,381.863892 
	C201.410675,380.770172 201.683533,378.696350 202.323074,376.640533 
	C206.070267,364.595032 207.557480,352.278748 206.696518,339.685150 
	C206.628387,338.688507 206.693909,337.679626 206.581055,336.689667 
	C205.258820,325.089813 204.279175,324.329987 192.602356,323.280823 
	C183.507278,322.463593 174.438995,321.296814 165.388901,320.064301 
	C162.895447,319.724670 161.851364,320.296448 161.102737,322.747101 
	C157.261368,335.321960 153.796432,347.986298 151.534500,360.947144 
	C151.168015,363.047180 151.189194,365.309692 151.526688,367.417786 
	C152.202560,371.639374 150.105103,374.176300 146.420212,374.519012 
	C142.191711,374.912292 142.669937,371.173859 142.675964,368.412109 
	C142.704010,355.553162 147.157959,343.623749 150.576340,331.483368 
	C151.740234,327.349792 153.091751,323.269012 154.328995,319.256622 
	C152.071091,317.483276 149.655533,317.640045 147.435715,317.083008 
	C145.120972,316.502106 142.946548,315.449310 142.512970,312.726288 
	C142.082977,310.025848 143.702148,308.344238 145.787903,307.051697 
	C146.916824,306.352051 148.076096,305.525909 149.332352,305.235321 
	C158.248642,303.172974 162.010681,297.098755 165.022858,288.732819 
	C176.306396,257.394440 188.501022,226.384369 203.992706,196.806808 
	C207.475342,190.157578 211.328156,183.730118 216.216003,177.984909 
	C217.962265,175.932358 219.893188,174.086075 222.492355,173.181107 
	C224.267960,172.562912 226.229080,172.160767 227.466812,174.043488 
	C228.867340,176.173828 227.649536,178.484787 226.011276,179.231094 
	C217.441971,183.134811 214.348892,191.403183 210.549896,198.775970 
	C197.646072,223.818832 186.880447,249.820847 176.912170,276.925690 
	C174.568985,283.011749 171.775986,288.207977 170.679321,294.812408 
	C175.132599,292.399109 179.123260,290.921997 182.349930,287.607574 
	C179.746948,284.300781 175.500992,281.975311 176.966370,276.961609 
M253.005432,269.053833 
	C253.786804,269.279907 254.563156,269.684021 255.350281,269.706207 
	C279.637115,270.391022 303.926605,270.987762 328.211029,271.746002 
	C331.881134,271.860626 332.995422,270.055908 333.845184,266.925201 
	C340.592072,242.068497 346.973602,217.123001 350.361511,191.551102 
	C351.976685,179.359543 353.020569,167.035583 350.592224,154.802475 
	C348.003143,141.759735 339.399597,138.010330 327.796753,144.588089 
	C319.038422,149.553299 312.583069,156.989639 306.637360,164.813492 
	C289.413788,187.477692 276.522949,212.662415 264.693024,238.409592 
	C260.193115,248.203384 255.395081,257.909760 253.005432,269.053833 
M229.393265,278.236237 
	C227.561676,278.227814 225.682800,278.484650 223.906158,278.167969 
	C212.318604,276.102661 203.907455,281.850464 195.754929,289.452698 
	C200.267441,295.847595 205.087326,302.248444 207.260910,309.710999 
	C209.253082,316.550751 213.486115,318.799835 219.783051,319.413574 
	C221.996384,319.629333 223.225723,319.099365 224.010056,317.034576 
	C228.676712,304.749634 233.401672,292.486847 238.067719,280.201691 
	C238.211029,279.824341 237.923782,279.283447 237.731689,278.251862 
	C235.277191,278.251862 232.812805,278.251862 229.393265,278.236237 
M167.703537,305.200012 
	C166.240799,306.466064 165.458588,307.999054 165.847046,310.664368 
	C177.130203,312.501465 188.522903,314.361359 200.782715,315.428436 
	C198.122498,307.708069 194.099640,301.855255 189.986664,296.047913 
	C188.441528,293.866211 186.757095,294.403473 184.816284,295.519623 
	C179.342880,298.667480 173.807343,301.707275 167.703537,305.200012 
M255.591080,239.748077 
	C255.593491,238.915787 256.967773,238.186325 255.578156,237.017883 
	C245.530060,247.775040 234.977417,257.976501 222.894135,268.561066 
	C229.820190,268.962128 235.213684,269.324524 240.612701,269.561798 
	C242.693054,269.653198 243.219543,267.944458 243.902817,266.371735 
	C247.677856,257.682465 251.519577,249.022202 255.591080,239.748077 
M214.735611,326.738190 
	C212.150482,331.010559 215.609695,334.722412 215.667648,338.799133 
	C216.929718,335.160248 219.152573,331.934814 219.358200,327.840790 
	C217.917313,327.442657 216.661270,327.095581 214.735611,326.738190 
M188.457306,279.670654 
	C190.758179,283.499207 191.976349,283.386536 194.606583,279.020355 
	C192.617096,277.948303 190.786743,279.112030 188.457306,279.670654 
z"/>
</svg>